PathFileType	4	(X/Y/Z)	./resultDataOpenSim/trcMotMarkerGrf/sub10/qtm-04-01.trc
DataRate	CameraRate	NumFrames	NumMarkers	Units	OrigDataRate	OrigDataStartFrame	OrigNumFrames
250.000000	250.000000	11	24	m	250.000000	124	493
Frame#	Time	L.Toe.Tip			R.Toe.Tip			L.Ankle.Lat			R.Ankle.Lat			L.Ankle.Med			R.Ankle.Med			L.Heel			R.Heel			L.Knee.Lat			R.Knee.Lat			L.Knee.Med			R.Knee.Med			L.Thigh.Upper			R.Thigh.Upper			L.ASIS			R.ASIS			V.Sacral			L.Acromium			R.Acromium			C7			L.Elbow			R.Elbow			L.Wrist.Lat			R.Wrist.Lat
		X1	Y1	Z1	X2	Y2	Z2	X3	Y3	Z3	X4	Y4	Z4	X5	Y5	Z5	X6	Y6	Z6	X7	Y7	Z7	X8	Y8	Z8	X9	Y9	Z9	X10	Y10	Z10	X11	Y11	Z11	X12	Y12	Z12	X13	Y13	Z13	X14	Y14	Z14	X15	Y15	Z15	X16	Y16	Z16	X17	Y17	Z17	X18	Y18	Z18	X19	Y19	Z19	X20	Y20	Z20	X21	Y21	Z21	X22	Y22	Z22	X23	Y23	Z23	X24	Y24	Z24

124	0.492	-0.53887978	0.070323032	-0.1253499	-0.67329199	0.03921034	0.054686724	-0.65730468	0.13422724	-0.12850312	-0.81604954	0.057146775	0.086315832	-0.6335919	0.14358339	-0.047259351	-0.79318866	0.083241536	0.0026568256	-0.72176965	0.11830601	-0.073826232	-0.86414924	0.034945964	0.037954748	-0.49567723	0.48713129	-0.13803542	-0.71022845	0.44792372	0.13228302	-0.47557646	0.45746105	-0.020012454	-0.70111066	0.45109241	0.0011055521	-0.64656502	0.8299955	-0.19171359	-0.6720912	0.8631103	0.1884586	-0.60031756	0.94374312	-0.12412654	-0.59608291	0.9501675	0.11857278	-0.79662082	0.96172562	-0.010722934	-0.65319655	1.4287049	-0.14740954	-0.66378982	1.4139399	0.17258808	-0.73726839	1.4470744	0.0073470557	-0.78404478	1.113815	-0.22494094	-0.73236426	1.0727197	0.24180836	-0.65820144	0.90280795	-0.25093746	-0.58852352	0.88118624	0.29643849
125	0.496	-0.51916638	0.069499555	-0.12358327	-0.67330991	0.039320423	0.054757192	-0.63943803	0.1299716	-0.12740895	-0.81610973	0.05716931	0.086291195	-0.61640328	0.14015766	-0.046120909	-0.79335611	0.083328427	0.0026014791	-0.70357086	0.11226263	-0.073187908	-0.86423653	0.03503006	0.037649808	-0.48754591	0.4880045	-0.13740124	-0.71106274	0.44812021	0.13323655	-0.46679342	0.45860224	-0.01914661	-0.70018709	0.45089136	0.0014941401	-0.63971791	0.83019439	-0.19171185	-0.6682883	0.86284141	0.18857977	-0.593979	0.94361285	-0.12366437	-0.59138499	0.94962662	0.11914882	-0.79064646	0.96186875	-0.011556667	-0.64778978	1.4283537	-0.14707577	-0.65830267	1.4137008	0.17294222	-0.73167909	1.4467222	0.0076983651	-0.78001347	1.114302	-0.22515742	-0.72420627	1.0718076	0.24294348	-0.65605978	0.90238151	-0.2520163	-0.57694061	0.88228938	0.29603674
126	0.5	-0.49938191	0.068774923	-0.1216768	-0.67333281	0.039408534	0.054819535	-0.62135784	0.12578701	-0.12628517	-0.81617866	0.057188865	0.08628181	-0.59937176	0.1367845	-0.044953583	-0.79338796	0.083434292	0.0026384144	-0.6852178	0.10615469	-0.072739247	-0.86428622	0.035080459	0.037493532	-0.47951749	0.48868373	-0.13680055	-0.71124215	0.4481716	0.13384003	-0.45822458	0.45961466	-0.018384127	-0.699278	0.45067842	0.0018690121	-0.63290806	0.83030071	-0.1916882	-0.66447433	0.8625153	0.18869931	-0.58758143	0.94341944	-0.12320836	-0.58686614	0.94899603	0.11970858	-0.78493096	0.96186269	-0.012161246	-0.6423808	1.4279149	-0.14673441	-0.65276393	1.4133656	0.17326825	-0.72613732	1.4462974	0.0080686311	-0.77596744	1.1147161	-0.22537394	-0.71601054	1.0708232	0.24403722	-0.65390573	0.90190397	-0.2530726	-0.5653536	0.88340995	0.29560094
127	0.504	-0.47951018	0.068163735	-0.1196217	-0.67337207	0.039442119	0.054871441	-0.60309941	0.12166349	-0.12514257	-0.81625527	0.057204923	0.086279341	-0.58236822	0.13357915	-0.04378275	-0.79338147	0.083529811	0.0027032017	-0.66663369	0.10012423	-0.072282106	-0.8643159	0.035106278	0.037408823	-0.47154561	0.48912266	-0.13619862	-0.7103975	0.44800078	0.13388366	-0.44997756	0.46044163	-0.017773976	-0.69841226	0.45044542	0.0022199721	-0.62609096	0.83032481	-0.19164375	-0.660641	0.8621176	0.18881107	-0.5811119	0.94316288	-0.12276003	-0.58252034	0.9482562	0.12023466	-0.77925386	0.96159909	-0.012807825	-0.6369563	1.4273914	-0.146395	-0.64719366	1.4129253	0.17357266	-0.72069947	1.4458015	0.0084661969	-0.7719067	1.1150496	-0.2255905	-0.70776341	1.0697568	0.24507572	-0.65173688	0.9013696	-0.25411003	-0.55375192	0.88454256	0.29512504
128	0.508	-0.45958333	0.067633652	-0.11742713	-0.6733726	0.039450863	0.054937269	-0.58467097	0.11761862	-0.12400085	-0.81632844	0.057213323	0.086269272	-0.56493573	0.13061761	-0.04255784	-0.79336226	0.08359527	0.0027676185	-0.6476885	0.094312551	-0.071564819	-0.86435584	0.035132825	0.037253607	-0.46360893	0.48931259	-0.13561242	-0.70897623	0.44764782	0.13365039	-0.44201438	0.46106705	-0.017287446	-0.69756676	0.45019323	0.0025415865	-0.61913358	0.83028487	-0.19157794	-0.65677208	0.86165257	0.18890153	-0.57456038	0.94283903	-0.12232235	-0.57808934	0.94744291	0.12074225	-0.77336097	0.96115915	-0.013571996	-0.63149733	1.4267913	-0.14606714	-0.6416132	1.4123876	0.17386822	-0.71534218	1.4452373	0.0088752631	-0.76783323	1.1153032	-0.22580769	-0.69948384	1.0686148	0.24607115	-0.64953949	0.90077875	-0.255128	-0.54212076	0.88567897	0.29460345
129	0.512	-0.43964171	0.06714378	-0.11510378	-0.67330441	0.039488253	0.055027358	-0.56608743	0.11368171	-0.12288136	-0.81636893	0.05720317	0.086228689	-0.54683748	0.12789732	-0.041222349	-0.79330314	0.083638945	0.0028289753	-0.62847397	0.088815318	-0.070599683	-0.86442426	0.035179198	0.036934779	-0.45570986	0.4892569	-0.13507345	-0.70785337	0.44726258	0.13382744	-0.43421164	0.4615127	-0.016863178	-0.69673273	0.44992622	0.0028191487	-0.61199177	0.83018739	-0.1914897	-0.65286122	0.86113206	0.18896289	-0.56795263	0.94243763	-0.12189857	-0.57326303	0.94662738	0.12126862	-0.76686698	0.96062971	-0.01445717	-0.62599646	1.4261149	-0.14575498	-0.63602905	1.4117724	0.17416344	-0.70986746	1.4446058	0.0092366144	-0.76374525	1.1154856	-0.22602284	-0.6912203	1.0674193	0.24705974	-0.64730115	0.90013128	-0.256128	-0.53046792	0.88681489	0.2940354
130	0.516	-0.41972548	0.066659904	-0.11266678	-0.67322508	0.039562707	0.055102182	-0.54739229	0.10987057	-0.12179417	-0.81634652	0.057165561	0.086140006	-0.5284228	0.12536691	-0.039812572	-0.79320599	0.083688075	0.0028695877	-0.60919551	0.083664153	-0.06953847	-0.86451358	0.035236938	0.036508221	-0.4478644	0.48896403	-0.13460566	-0.70733213	0.44699873	0.13478663	-0.42649071	0.46179837	-0.016468614	-0.69593378	0.44964035	0.0030285583	-0.60479324	0.83002354	-0.19139407	-0.64890797	0.8605603	0.18899609	-0.56133775	0.94195195	-0.12149391	-0.56805211	0.94583249	0.12181847	-0.75956677	0.96002161	-0.015443818	-0.62046188	1.4253549	-0.14546012	-0.63042948	1.4110899	0.1744551	-0.7040453	1.4439002	0.0094886535	-0.75963489	1.1156056	-0.22622936	-0.68300808	1.0661864	0.24806668	-0.64501391	0.8994244	-0.25711127	-0.51884975	0.88795602	0.29342899
131	0.52	-0.39987456	0.066156348	-0.11013939	-0.6732046	0.039635738	0.055114902	-0.5286176	0.10620081	-0.12072889	-0.81626906	0.057108829	0.086009659	-0.51014154	0.12296465	-0.038406143	-0.79311485	0.083754388	0.0028603707	-0.58990298	0.078819641	-0.068420483	-0.86459758	0.035275285	0.036134866	-0.44008639	0.48846349	-0.13424387	-0.70693515	0.44690943	0.13588975	-0.41885126	0.4619298	-0.016109846	-0.69515319	0.44934248	0.0031704504	-0.59770082	0.82977889	-0.19131322	-0.64490962	0.85993164	0.18900501	-0.55473643	0.94138307	-0.12111414	-0.56273994	0.94501516	0.12235777	-0.75202278	0.95932703	-0.01644801	-0.61490959	1.4245097	-0.1451844	-0.62480232	1.4103347	0.17473286	-0.69796586	1.443115	0.0096638925	-0.75549199	1.1156649	-0.22641892	-0.67485235	1.0649185	0.24909211	-0.64267798	0.89865987	-0.2580758	-0.5073396	0.88911443	0.29279735
132	0.524	-0.38011558	0.065618941	-0.1075323	-0.673247	0.03967071	0.055063787	-0.50978493	0.10268942	-0.11966723	-0.81619493	0.057057779	0.085868559	-0.49210639	0.12065056	-0.037060381	-0.79305812	0.083818177	0.0027953779	-0.57057922	0.074232465	-0.067255473	-0.86465792	0.035273262	0.035902317	-0.43240216	0.48778999	-0.13401405	-0.70624217	0.44690706	0.13605036	-0.41132993	0.46190381	-0.015807961	-0.69428138	0.449066	0.0033019035	-0.59074859	0.8294436	-0.19125197	-0.64086831	0.85923529	0.18899269	-0.5481319	0.94073493	-0.12075817	-0.55753978	0.9441255	0.12285747	-0.74541562	0.95857029	-0.017354043	-0.60934819	1.4235863	-0.14492567	-0.61914206	1.4094946	0.17498824	-0.6920166	1.4422558	0.0098718911	-0.75130938	1.1156564	-0.22658527	-0.66674276	1.0636164	0.25012618	-0.64030537	0.89784477	-0.25902409	-0.49594529	0.89029699	0.29214502
133	0.528	-0.36046111	0.065034266	-0.10483324	-0.67331839	0.039663301	0.05497629	-0.49093616	0.099342245	-0.11859289	-0.81620241	0.05703718	0.085756019	-0.47423208	0.11842776	-0.035801299	-0.7930236	0.083856915	0.002691961	-0.55129044	0.069909339	-0.066166271	-0.86469756	0.035235429	0.035763109	-0.42484754	0.48695946	-0.13390217	-0.70529724	0.44681366	0.13512954	-0.40395814	0.46171154	-0.015577443	-0.69320975	0.44883324	0.0034820452	-0.58385185	0.82901783	-0.19119621	-0.63679568	0.85846458	0.1889578	-0.54150675	0.94001433	-0.12041605	-0.5524734	0.94314814	0.1233188	-0.74042585	0.95777337	-0.018142074	-0.60377348	1.42259	-0.14468007	-0.6134447	1.4085604	0.17521755	-0.68641132	1.4413279	0.010160498	-0.74708725	1.1155708	-0.22673162	-0.65865094	1.0622796	0.25115067	-0.63791067	0.89698453	-0.25996432	-0.48459461	0.89149974	0.29146211
134	0.532	-0.34092734	0.064375472	-0.10202875	-0.67339295	0.039635183	0.054876434	-0.47211849	0.096162635	-0.11749531	-0.8163462	0.057058492	0.085701065	-0.45644293	0.11632632	-0.034620407	-0.7929839	0.083868316	0.0025720366	-0.53213658	0.0659121	-0.065302095	-0.8647312	0.035179516	0.035628856	-0.41741466	0.48597037	-0.13387154	-0.70417999	0.44652038	0.13403402	-0.39674446	0.46134115	-0.015414833	-0.69195989	0.44861862	0.0036935508	-0.57691343	0.82851208	-0.19113006	-0.63270426	0.85762756	0.18890084	-0.5348602	0.93923039	-0.12007481	-0.54746839	0.94209617	0.12375713	-0.73657641	0.95689167	-0.018925384	-0.59818334	1.4215193	-0.14445033	-0.60770674	1.4075298	0.17541998	-0.68101655	1.4403287	0.010481551	-0.74283828	1.1154053	-0.22688549	-0.65051729	1.0608963	0.25212695	-0.63550658	0.89607684	-0.26090794	-0.47321821	0.89271538	0.29073635
